<svg width="841" height="841" viewBox="0 0 841 841" fill="none" xmlns="http://www.w3.org/2000/svg">
<path d="M406.941 0.211957C638.735 -7.08264 832.605 174.808 840.089 406.596C847.574 638.384 665.843 832.403 434.061 840.077C202.01 847.761 7.71646 665.773 0.223158 433.716C-7.27024 201.659 174.878 7.51516 406.941 0.211957Z" fill="url(#paint0_linear_996_27619)"/>
<path d="M262.612 212.116C269.652 211.744 278.638 211.967 285.811 211.963L328.295 211.949L456.712 211.964L541.297 211.962L565.839 211.868C570.325 211.843 577.143 211.621 581.459 212.072C590.241 213.051 598.632 216.245 605.843 221.353C616.765 229.007 625.715 241.835 628.118 255.088C629.496 262.689 629.248 272.459 629.258 280.296C629.283 290.395 629.24 300.494 629.13 310.593C628.908 337.239 628.827 363.886 628.886 390.533L628.795 512.808L628.777 550.786C628.771 558.467 628.995 569.168 628.145 576.656C627.04 586.395 623.452 595.687 617.723 603.64C608.191 617.015 595.41 625.033 579.31 627.8C578.666 627.933 578.019 628.046 577.369 628.141C567.707 629.601 541.874 628.986 530.704 628.975L440.1 628.878L319.703 628.829L285.416 628.769C278.083 628.752 268.78 628.927 261.626 628.118C251.267 626.863 241.441 622.826 233.192 616.436C207.398 596.711 211.872 564.53 211.899 535.795L212.318 446.651L212.189 321.859L212.118 282.957C212.088 264.514 210.791 248.671 223.076 233.248C233.602 220.033 246.02 214.036 262.612 212.116Z" fill="#FEFEFE"/>
<path d="M476.509 255.696L516.6 255.523C536.778 255.451 554.309 253.062 569.941 268.394C580.295 278.548 583.271 288.866 583.189 303.101C583.102 318.148 582.904 333.155 582.892 348.14L582.875 470.719L583.093 517.743C583.316 538.305 586.166 554.91 570.325 570.817C556.986 584.212 541.758 582.779 524.424 582.828L488.762 582.865L366.318 583.102L325.642 583.186C314.038 583.165 299.684 583.754 288.623 580.757C282.578 579.119 275.756 574.539 271.341 570.206C262.257 561.291 258.064 551.144 258.086 538.45C258.109 525.561 258.216 512.615 258.184 499.729L258.244 366.957L258.281 319.215C258.274 299.295 255.56 283.482 270.907 268.422C284.696 254.891 298.646 256.006 316.316 255.928L349.581 255.852L476.509 255.696Z" fill="#00E290"/>
<path d="M314.525 281.602C315.851 281.392 319.226 281.27 320.521 281.27C369.077 281.306 417.671 281.249 466.224 281.31L505.689 281.372C522.7 281.404 535.902 279.999 549.004 293.073C563.376 307.414 560.5 325.783 560.476 344.264L560.338 402.289L507.181 402.528C506.974 391.107 507.352 379.408 507.226 367.979C507.147 360.757 507.74 351.047 506.117 344.174C504.908 338.946 502.351 334.127 498.7 330.195C493.286 324.478 485.278 321.65 477.545 321.645C452.822 321.629 427.317 321.571 402.683 321.739C392.868 321.806 362.096 321.161 353.859 322.843C348.823 323.898 344.186 326.346 340.473 329.907C330.084 340.006 329.238 349.128 329.115 362.494C328.953 392.442 328.946 422.39 329.095 452.338C329.134 459.1 328.92 485.848 329.956 491.168C331.191 497.424 334.262 503.17 338.778 507.672C350.204 519.129 364.276 517.851 379.243 517.867L403.929 517.857L449.968 517.848C465.823 517.894 486.119 520.74 498.143 508.74C509.052 497.853 507.41 482.73 507.375 468.677L507.269 437.013C524.655 436.963 543.073 436.682 560.408 437.228L560.608 494.055C560.6 503.09 561.029 518.577 559.349 527.004C558.241 532.397 555.963 537.481 552.676 541.898C546.324 550.461 536.816 556.134 526.264 557.658C514.574 559.391 493.4 558.868 481.046 558.859L408.524 558.783L348.125 558.727C330.588 558.71 311.094 561.528 296.489 550.522C288.084 544.159 282.561 534.708 281.143 524.262C280.239 517.968 280.735 500.761 280.757 493.501L280.826 434.882L280.801 356.675C280.799 344.027 280.315 330.077 281.159 317.506C282.372 299.45 296.413 284.171 314.525 281.602Z" fill="#FEFEFE"/>
<path d="M373.51 356.005C382.514 355.524 461.44 355.109 465.176 356.643C468.032 357.817 470.246 360.477 471.383 363.287C471.985 364.773 472.184 366.307 472.28 367.896C473.222 383.48 472.505 399.511 472.573 415.138C472.655 434.078 473.38 453.24 472.689 472.157C472.613 474.248 472.59 476.42 471.711 478.359C470.175 481.749 467.252 483.48 463.938 484.818C448.084 485.649 431.864 485.124 415.974 485.109C403.628 485.098 390.804 485.716 378.5 484.887C375.809 484.706 372.866 484.185 370.38 483.109C367.695 481.948 365.376 479.097 364.47 476.345C362.813 471.312 362.772 379.589 363.332 368.697C363.444 366.515 363.586 364.389 364.655 362.44C366.556 358.975 369.84 357.108 373.51 356.005Z" fill="#FEFEFE"/>
<defs>
<linearGradient id="paint0_linear_996_27619" x1="594.08" y1="38.4832" x2="246.057" y2="800.875" gradientUnits="userSpaceOnUse">
<stop stop-color="#00EE61"/>
<stop offset="1" stop-color="#04C7A6"/>
</linearGradient>
</defs>
</svg>
